<svg width="24" height="24" viewBox="0 0 24 24" fill="none" xmlns="http://www.w3.org/2000/svg">
<path d="M16.375 1.5C19.7438 1.50009 22.4999 4.25622 22.5 7.625V16.375C22.4999 19.7438 19.7438 22.4999 16.375 22.5H7.625C4.25622 22.4999 1.50009 19.7438 1.5 16.375V7.625C1.50009 4.25622 4.25622 1.50009 7.625 1.5H16.375ZM7.625 3.25C6.46572 3.2535 5.3549 3.71541 4.53516 4.53516C3.71541 5.3549 3.2535 6.46572 3.25 7.625V16.375C3.2535 17.5343 3.71541 18.6451 4.53516 19.4648C5.3549 20.2846 6.46572 20.7465 7.625 20.75H16.375C17.5343 20.7465 18.6451 20.2846 19.4648 19.4648C20.2846 18.6451 20.7465 17.5343 20.75 16.375V7.625C20.7465 6.46572 20.2846 5.3549 19.4648 4.53516C18.6451 3.71541 17.5343 3.2535 16.375 3.25H7.625ZM12 6.75C13.3924 6.75 14.7273 7.30352 15.7119 8.28809C16.6965 9.27265 17.25 10.6076 17.25 12C17.25 13.0384 16.9421 14.0536 16.3652 14.917C15.7884 15.7803 14.968 16.4533 14.0088 16.8506C13.0496 17.2478 11.9939 17.352 10.9756 17.1494C9.95724 16.9468 9.02228 16.4461 8.28809 15.7119C7.55389 14.9777 7.05317 14.0428 6.85059 13.0244C6.64804 12.0061 6.75217 10.9504 7.14941 9.99121C7.54675 9.03196 8.21973 8.21164 9.08301 7.63477C9.94637 7.05789 10.9616 6.75 12 6.75ZM12 8.5C11.072 8.50099 10.1826 8.87018 9.52637 9.52637C8.87018 10.1826 8.50099 11.072 8.5 12C8.5 12.6922 8.70529 13.3688 9.08984 13.9443C9.47436 14.5198 10.0208 14.9685 10.6602 15.2334C11.2997 15.4983 12.0037 15.5676 12.6826 15.4326C13.3616 15.2976 13.9851 14.9641 14.4746 14.4746C14.9641 13.9851 15.2976 13.3616 15.4326 12.6826C15.5676 12.0037 15.4983 11.2997 15.2334 10.6602C14.9685 10.0208 14.5198 9.47436 13.9443 9.08984C13.3688 8.70529 12.6922 8.5 12 8.5ZM17.4316 5.02539C17.686 4.97486 17.9498 5.00042 18.1895 5.09961C18.4291 5.19888 18.6341 5.36739 18.7783 5.58301C18.9225 5.7988 19 6.05297 19 6.3125C19.0004 6.48496 18.9662 6.65602 18.9004 6.81543C18.8346 6.97471 18.738 7.11933 18.6162 7.24121C18.4943 7.36311 18.3498 7.46054 18.1904 7.52637C18.0311 7.59218 17.8599 7.62535 17.6875 7.625C17.4279 7.625 17.1738 7.54849 16.958 7.4043C16.7422 7.26008 16.5739 7.05428 16.4746 6.81445C16.3754 6.57475 16.3498 6.31108 16.4004 6.05664C16.451 5.8022 16.5754 5.56827 16.7588 5.38477C16.9423 5.20121 17.177 5.07603 17.4316 5.02539Z" fill="black"/>
</svg>
